<?xml version="1.0" standalone="no"?>
<!DOCTYPE svg PUBLIC "-//W3C//DTD SVG 1.1//EN" "http://www.w3.org/Graphics/SVG/1.1/DTD/svg11.dtd" >
<svg xmlns="http://www.w3.org/2000/svg">
<metadata>
Created by FontForge 20120731 at Wed Oct 14 18:49:22 2015
 By Ads
</metadata>
<defs>
<font id="iconfont" horiz-adv-x="1024" >
  <font-face 
    font-family="iconfont"
    font-weight="500"
    font-stretch="normal"
    units-per-em="1024"
    panose-1="2 0 6 3 0 0 0 0 0 0"
    ascent="812"
    descent="-212"
    x-height="792"
    bbox="-11 -237 1026 812"
    underline-thickness="50"
    underline-position="-100"
    unicode-range="U+0078-E615"
  />
<missing-glyph horiz-adv-x="374" 
d="M34 0v682h272v-682h-272zM68 34h204v614h-204v-614z" />
    <glyph glyph-name=".notdef" horiz-adv-x="374" 
d="M34 0v682h272v-682h-272zM68 34h204v614h-204v-614z" />
    <glyph glyph-name=".null" horiz-adv-x="0" 
 />
    <glyph glyph-name="nonmarkingreturn" horiz-adv-x="341" 
 />
    <glyph glyph-name="x" unicode="x" horiz-adv-x="1001" 
d="M281 543q-27 -1 -53 -1h-83q-18 0 -36.5 -6t-32.5 -18.5t-23 -32t-9 -45.5v-76h912v41q0 16 -0.5 30t-0.5 18q0 13 -5 29t-17 29.5t-31.5 22.5t-49.5 9h-133v-97h-438v97zM955 310v-52q0 -23 0.5 -52t0.5 -58t-10.5 -47.5t-26 -30t-33 -16t-31.5 -4.5q-14 -1 -29.5 -0.5
t-29.5 0.5h-32l-45 128h-439l-44 -128h-29h-34q-20 0 -45 1q-25 0 -41 9.5t-25.5 23t-13.5 29.5t-4 30v167h911zM163 247q-12 0 -21 -8.5t-9 -21.5t9 -21.5t21 -8.5q13 0 22 8.5t9 21.5t-9 21.5t-22 8.5zM316 123q-8 -26 -14 -48q-5 -19 -10.5 -37t-7.5 -25t-3 -15t1 -14.5
t9.5 -10.5t21.5 -4h37h67h81h80h64h36q23 0 34 12t2 38q-5 13 -9.5 30.5t-9.5 34.5q-5 19 -11 39h-368zM336 498v228q0 11 2.5 23t10 21.5t20.5 15.5t34 6h188q31 0 51.5 -14.5t20.5 -52.5v-227h-327z" />
    <glyph glyph-name="uniE600" unicode="&#xe600;" 
d="M903 651h-43q-2 0 -7.5 0.5t-20 3t-31.5 6.5t-43.5 12.5t-54.5 19.5q-105 42 -167 88l-26 18l-26 -18q-6 -5 -21 -14.5t-58 -32.5t-88 -41q-44 -18 -84 -28t-53.5 -12t-18.5 -2h-43v-429q0 -51 26 -107.5t66.5 -103.5t88 -91t91.5 -74.5t76.5 -48.5t43.5 -19
q11 0 43.5 18.5t76.5 48.5t91.5 74t88 91.5t67 104t26.5 107.5v429zM464 100l-184 154l57 65l117 -99l224 254l66 -56z" />
    <glyph glyph-name="uniE601" unicode="&#xe601;" 
d="M465 133q4 -4 11 -5.5t13.5 0t10.5 5.5l299 310q6 7 6 18t-6 17q-3 4 -8 5.5t-10 1.5t-9.5 -1.5t-7.5 -5.5l-302 -307h35l-181 167q-6 7 -17.5 6.5t-17.5 -9.5q-7 -6 -6.5 -17.5t9.5 -17.5zM1024 300q0 140 -68.5 257.5t-186 186t-257.5 68.5t-257.5 -68.5t-186 -186
t-68.5 -257.5t68.5 -257.5t186 -186t257.5 -68.5q175 0 319 111q19 14 3 35q-14 19 -35 3q-127 -99 -287 -99q-94 0 -179.5 36.5t-147.5 98.5t-98.5 147.5t-36.5 179.5t36.5 179.5t98.5 147.5t147.5 98.5t179.5 36.5q75 0 145.5 -23.5t127.5 -66t99.5 -99.5t66 -127.5
t23.5 -145.5q0 -138 -70 -243q-10 -21 9 -35q21 -10 35 9q76 121 76 269zM1024 300z" />
    <glyph glyph-name="uniE602" unicode="&#xe602;" 
d="M977 -194q0 -17 -12.5 -29.5t-29.5 -12.5q-11 0 -21 5.5t-15.5 15.5t-5.5 21v4v5q-20 138 -126 229t-251 93h-2h-2h-3h-2q-142 -2 -248 -91t-127 -225q1 -3 1 -5v-6l1 -4q0 -18 -12.5 -30.5t-30.5 -12.5q-11 0 -21 6t-15.5 15.5t-5.5 21.5h-1v2v2q0 5 2 10
q16 126 94.5 224t195.5 143q-69 44 -109 117t-40 159q0 89 42.5 164.5t116 119t162.5 43.5q66 0 126 -25.5t102.5 -69.5t67.5 -104.5t25 -127.5q0 -86 -40.5 -159t-108.5 -117q57 -22 106.5 -58t87.5 -82.5t63 -103.5t33 -119q3 -7 3 -14v-4zM759 463q0 103 -72.5 175
t-174.5 72q-25 0 -49.5 -5t-46.5 -14t-42 -22.5t-37 -30.5t-30.5 -37t-22.5 -41.5t-14 -46t-5 -50.5q0 -67 33 -124t90 -90t124 -33t124 33t90 90t33 124z" />
    <glyph glyph-name="uniE603" unicode="&#xe603;" 
d="M841 414h-550v100q0 89 63.5 152.5t153.5 63.5h8q90 0 153.5 -63.5t63.5 -152.5q0 -11 7.5 -18.5t18.5 -7.5q5 0 10 2t8.5 5.5t5.5 8.5t2 10q0 44 -13.5 84.5t-38.5 73.5t-58 58t-74 38.5t-85 13.5h-8q-73 0 -135 -36t-98 -97.5t-36 -134.5v-100h-56q-40 0 -68 -28
t-28 -68v-429q0 -39 28 -67t68 -28h658q16 0 30.5 5t26 13.5t20.5 20.5t14 26.5t5 29.5v429q0 40 -28 68t-68 28zM885 -111q0 -11 -6 -21t-16 -16t-22 -6h-658q-18 0 -31 12.5t-13 30.5v429q0 18 13 31t31 13h658q18 0 31 -13t13 -31v-429zM512 235q-36 0 -66 -17.5
t-47.5 -48t-17.5 -65.5q0 -54 38.5 -92.5t92.5 -38.5t92.5 38.5t38.5 92.5t-38.5 92.5t-92.5 38.5zM512 8q-40 0 -68.5 28t-28.5 68t28.5 68t68.5 28t68.5 -28t28.5 -68t-28.5 -68t-68.5 -28z" />
    <glyph glyph-name="uniE604" unicode="&#xe604;" 
d="M949 236v-155h-570v-207l-362 362h932zM69 340v155h569v207l363 -362h-932z" />
    <glyph glyph-name="uniE605" unicode="&#xe605;" 
d="M512 -212l-21 19q-11 10 -27.5 26t-56.5 57t-77 82.5t-81 98.5t-75.5 108.5t-52.5 107.5t-21 102q0 111 55 206t150 150.5t207 55.5q67 0 130 -21t113.5 -59t88.5 -88.5t59 -113.5t21 -130q0 -36 -13 -78.5t-34 -83t-51 -85t-59.5 -82.5t-64 -77.5t-61 -67.5t-53 -54.5
t-37.5 -37t-18 -16.5zM512 739q-32 0 -63 -6t-59 -16.5t-54.5 -25.5t-49 -34.5t-42 -42.5t-34.5 -49t-26 -54.5t-16.5 -59.5t-5.5 -62q0 -54 37.5 -128t96 -148t112 -133t104.5 -107q50 48 104 107t112.5 133t96 148t37.5 128q0 95 -47 175.5t-127.5 127.5t-175.5 47z
M512 236q-70 0 -120 50t-50 120t50 119.5t120 49.5t120 -49.5t50 -119.5q0 -46 -23 -85.5t-62 -62t-85 -22.5zM511.5 513q-44.5 0 -76 -31.5t-31.5 -76t31.5 -76t76 -31.5t76 31.5t31.5 76t-31.5 76t-76 31.5z" />
    <glyph glyph-name="uniE606" unicode="&#xe606;" 
d="M194 774v-143q0 -6 5 -11t11.5 -5t11 5t4.5 11v143q0 7 -4.5 11.5t-11 4.5t-11.5 -4.5t-5 -11.5zM953 -138h-886q-27 0 -45.5 18.5t-18.5 44.5v716q0 26 18.5 44.5t45.5 18.5h79q7 0 11.5 -4.5t4.5 -11t-4.5 -11.5t-11.5 -5h-79q-7 0 -13 -2.5t-10 -6.5t-6.5 -10
t-2.5 -12v-716q0 -13 9.5 -22.5t22.5 -9.5h886q9 0 16 4.5t11.5 12t4.5 15.5v716q0 13 -9.5 22t-22.5 9h-76q-6 0 -10.5 5t-4.5 11.5t4.5 11t10.5 4.5h76q26 0 45 -18.5t19 -44.5v-716q0 -26 -19 -44.5t-45 -18.5zM756 672h-493q-6 0 -11 5t-5 11.5t5 11t11 4.5h493
q4 0 7 -1t5 -3.5t3 -5t1 -6.5t-2 -7.5t-5.5 -6t-8.5 -2.5zM816 615q-7 0 -11.5 4.5t-4.5 11.5v144q0 4 2 8t6 6t8 2q6 0 11 -4.5t5 -11.5v-144q0 -3 -1 -5.5t-2.5 -4.5t-3.5 -3.5t-4.5 -2t-4.5 -0.5zM991 433h-966q-13 0 -15 12q-1 2 -1 4q0 6 5 10.5t11 4.5h966
q7 0 11.5 -4.5t4.5 -10.5q0 -3 -1 -5.5t-2.5 -4.5t-3 -3.5t-4 -2t-5.5 -0.5zM492 57v-35h-163q-1 11 2.5 23t10.5 25q13 27 50 63q42 42 55 65q7 12 10 22.5t3 20.5q0 23 -13.5 37.5t-32.5 14.5q-6 0 -10.5 -1t-9 -3t-8.5 -5t-7 -6q-13 -16 -13 -45l-32 4q4 43 25 65t56 22
q37 0 56.5 -25.5t19.5 -58.5q0 -28 -15 -54.5t-58 -70.5q-27 -28 -35 -38q-3 -5 -6.5 -10t-5.5 -10h121zM524 101l30 5q9 -59 48 -59q20 0 35.5 17.5t15.5 45.5q0 26 -14 42t-34 16q-9 0 -22 -4l4 33l4 -1q23 0 37 14t14 37q0 21 -12 33q-3 4 -6 6t-6.5 4t-7.5 2.5t-8 0.5
q-18 0 -30 -13.5t-15 -40.5l-30 7q5 38 25.5 58t48.5 20q30 0 51 -22.5t21 -55.5q0 -21 -9 -36.5t-25 -24.5q15 -4 24 -14q5 -5 9 -11t7 -14q6 -16 6 -35q0 -42 -24.5 -68t-58.5 -26q-31 0 -53 23t-25 61z" />
    <glyph glyph-name="uniE607" unicode="&#xe607;" 
d="M716 159q-42 36 -93 55q-10 4 -20 7q32 16 57 43q19 21 32.5 46t20.5 52.5t7 57.5q0 91 -60 155.5t-146 64.5q-41 0 -78.5 -17t-66.5 -48t-44.5 -71t-15.5 -84t15.5 -84.5t44.5 -71.5q12 -13 26.5 -24t29.5 -19q-5 -1 -10.5 -3t-10.5 -4q-51 -19 -93 -55q-43 -36 -72 -84
q-29 -50 -43 -106l32 -9q24 104 103 171q38 33 84 50q48 18 98.5 18t98.5 -18q46 -17 84 -50q79 -66 103 -170l31 8q-13 57 -42 106q-30 48 -72 84zM341 420q0 50 23.5 92.5t63 67.5t86.5 25q72 0 122.5 -54.5t50.5 -131t-50.5 -130.5t-122 -54t-122.5 54t-51 131zM982 113
q-20 33 -49 58t-64 38q-3 1 -6.5 2t-7.5 2q8 4 14.5 8.5t13 10t11.5 11.5q10 11 18 23t13 25.5t8 28.5t3 30q0 62 -42 106q-20 22 -45.5 33.5t-53.5 11.5q-18 0 -35.5 -5t-32.5 -14q5 -11 8 -23q9 6 18.5 9.5t20 6t21.5 2.5q49 0 83.5 -37.5t34.5 -90t-34.5 -89.5t-83.5 -37
q-11 0 -22 2v-1v-1v-7q0 -3 -0.5 -6t-1 -6.5t-1.5 -6.5q12 1 24 1q35 0 67 -12t58 -34q54 -46 71 -117l21 6q-4 19 -11.5 37t-17.5 35zM258 197q-3 13 -3 26v1v1q-4 -1 -7.5 -1.5t-7.5 -0.5h-7q-24 0 -46 10t-37.5 27t-25 40.5t-9.5 49.5q0 52 34.5 89.5t83.5 37.5
q32 0 60 -18q1 6 3.5 12t4.5 11q-31 19 -68 19q-58 0 -99.5 -44.5t-41.5 -107t42 -106.5q4 -5 8.5 -9t9.5 -8l10 -6q5 -4 11 -7q-4 -1 -7.5 -2t-6.5 -2q-35 -13 -64 -38t-49 -58q-20 -34 -29 -72l21 -6q17 71 71 117q26 22 58 34t67 12h4h6h4q3 0 5.5 -0.5t4.5 -0.5z" />
    <glyph glyph-name="uniE608" unicode="&#xe608;" 
d="M896 -19l-114 114q-10 10 -24 13.5t-28 0t-24 -13.5l-50 -51q-10 -10 -24 -13.5t-28 0t-24 13.5l-203 203q-15 15 -15 37.5t15 37.5l51 51q16 16 16 38q0 11 -4 20.5t-12 17.5l-114 114q-5 5 -11 8.5t-13 5t-14 1.5t-13.5 -1.5t-13 -5t-11.5 -8.5l-50 -51q-1 0 -3 -1
q-10 -6 -14 -15q-98 -102 -33 -251q47 -109 189 -251q110 -110 198 -162.5t163 -52.5q80 0 141 59q4 2 7.5 5t5 4.5t2.5 4.5l1 2l51 51q16 16 16 38t-16 38zM264 537q2 2 4.5 3.5t5 2t5.5 0t5.5 -2t4.5 -3.5l114 -113q5 -6 5 -13q0 -8 -5 -13l-38 -38l-139 139zM688 -185
q-132 0 -336 204q-137 137 -182 240q-56 129 30 215l141 -140q-7 -11 -11 -22.5t-4 -23.5t2.5 -24t8.5 -23t15 -20l203 -202q26 -26 63 -26q13 0 25.5 3.5t23.5 10.5l141 -140q-53 -52 -120 -52zM871 -70l-38 -38l-139 140l38 37q5 5 12.5 5t12.5 -5l114 -113q5 -6 5 -13
t-5 -13zM516 427q45 45 45 109q0 20 -5 39.5t-15 37t-25 31.5q-45 45 -108.5 45t-108.5 -45l25 -25q17 17 38.5 26t45 9t45 -9t38.5 -26q34 -34 34 -83q0 -24 -8.5 -45.5t-25.5 -37.5zM404 761q95 0 162 -67t67 -161.5t-67 -161.5l25 -26q38 38 58 86t20 101
q0 110 -77.5 187.5t-187 77.5t-187.5 -78l25 -25q67 67 162 67z" />
    <glyph glyph-name="uniE609" unicode="&#xe609;" 
d="M485 55.5q0 24.5 13.5 38t38 13.5t38 -13.5t13.5 -38t-13.5 -38t-38 -13.5t-38 13.5t-13.5 38zM584 498l-15 -311q0 -9 -3 -15.5t-10.5 -9.5t-19.5 -3q-5 0 -10 1t-8.5 3t-6.5 5t-4.5 6t-2.5 6.5t-1 6.5l-14 311q0 21 13 32t34.5 11t34.5 -11t13 -32zM513 781
q-101 0 -192.5 -39t-158 -105.5t-105.5 -158t-39 -192t39 -192.5t105.5 -158t158 -105.5t192.5 -39.5q67 0 131 18t118.5 50t100 77.5t77.5 100t50 118.5t18 131q0 58 -13 113.5t-37.5 104.5t-58.5 92t-77 76.5t-91.5 58t-104 37.5t-113.5 13zM513 -161q-90 0 -173 35.5
t-143 95.5t-96 143t-36 173.5t36 173t96 143t143 96t173 35.5t173 -35.5t143 -96t96 -143t36 -173.5q0 -90 -35.5 -172.5t-95 -143t-142.5 -96t-175 -35.5z" />
    <glyph glyph-name="uniE60A" unicode="&#xe60a;" 
d="M944 506h-873q-34 0 -58 -24t-24 -57v-492q0 -34 24 -58t58 -24h873q17 0 32 6.5t26 17.5t17.5 26t6.5 32v492q0 33 -24 57t-58 24zM944 452q3 0 5 -1l-411 -274q-12 -8 -30.5 -8t-30.5 8l-411 274q2 1 5 1h873zM944 -94h-873q-8 0 -14 3.5t-10 10t-4 13.5v468l404 -269
q12 -9 28 -13t32 -4q36 0 61 17l404 269v-468q0 -6 -2.5 -11t-6 -8.5t-8.5 -5.5t-11 -2z" />
    <glyph glyph-name="uniE60B" unicode="&#xe60b;" 
d="M512 -212q-12 0 -20 10q-73 93 -143 224q-63 117 -99 226q-45 138 -45 257q0 127 90 217t217 90q62 0 119 -24.5t98.5 -65.5t65.5 -98t24 -119q0 -119 -45 -257q-36 -109 -99 -226q-70 -131 -143 -224q-7 -10 -20 -10zM512 761q-106 0 -181 -75t-75 -181q0 -202 138 -458
q54 -101 118 -190q65 90 119 190q137 257 137 458q0 69 -34.5 128t-93.5 93.5t-128 34.5zM512 351q-64 0 -109 45t-45 109q0 41 21 76.5t56 56t77 20.5t77 -20.5t56 -56t21 -76.5q0 -64 -45 -109t-109 -45zM512 607q-42 0 -72 -30t-30 -72.5t30 -72.5t72 -30t72 30t30 72.5
t-30 72.5t-72 30z" />
    <glyph glyph-name="uniE60C" unicode="&#xe60c;" 
d="M819 -212q-136 0 -287 76q-140 72 -262 194t-193 262q-76 151 -76 287q0 65 78 137q9 8 18.5 16t20.5 15.5t22 14t22 11.5t22 8t21 3q28 0 71 -40q33 -31 71 -79q14 -19 30 -41.5t37 -61.5t21 -60q0 -13 -6.5 -25.5t-21.5 -25t-26.5 -20.5t-34.5 -22q-36 -21 -49 -32
q-15 -12 -17 -19q36 -91 131.5 -186.5t186.5 -131.5q1 0 2.5 1t6 5t10.5 11q10 13 32 49q14 23 22 34.5t20.5 26.5t25 21.5t25.5 6.5q21 0 60 -21t61.5 -37t41.5 -30q48 -38 79 -71q40 -43 40 -71q0 -27 -20.5 -62t-47.5 -64q-72 -79 -137 -79zM205 761q-8 0 -21 -5.5
t-32 -18.5t-38 -30q-62 -57 -62 -100q0 -84 33 -176t89 -176t132.5 -160.5t160.5 -132.5t176 -89.5t176 -33.5q43 0 100 62q25 28 39.5 53.5t14.5 38.5q-1 5 -10.5 18t-34 36.5t-57.5 49.5q-44 34 -80.5 54.5t-47.5 20.5q-6 -2 -19 -17q-10 -13 -31 -48q-14 -23 -22 -34.5
t-21 -27t-25.5 -22t-26.5 -6.5q-5 0 -9.5 1t-9.5 2q-66 27 -136.5 83.5t-127 127t-83.5 136.5q-14 36 24 71q17 15 63 43q35 21 48 32q3 2 5.5 4t4 4t3 3.5t2 2.5t1.5 2l1 1v1q0 11 -20.5 47.5t-54.5 80.5q-26 34 -50 58t-36.5 33.5t-18.5 10.5h1z" />
    <glyph glyph-name="uniE60D" unicode="&#xe60d;" 
d="M947 607h-77v128q0 32 -22.5 54.5t-53.5 22.5h-564q-31 0 -53.5 -22.5t-22.5 -54.5v-128h-77q-32 0 -54.5 -22.5t-22.5 -54.5v-460q0 -32 22.5 -54.5t54.5 -22.5h77v-128q0 -32 22.5 -54.5t53.5 -22.5h564q31 0 53.5 22.5t22.5 54.5v128h77q32 0 54.5 22.5t22.5 54.5v460
q0 32 -22.5 54.5t-54.5 22.5zM205 735q0 5 2 10t5.5 8.5t8 5.5t9.5 2h564q10 0 17.5 -7.5t7.5 -18.5v-128h-614v128zM794 -161h-564q-3 0 -6.5 1t-6 2.5t-5 4t-4 5.5t-2.5 6t-1 7v333h614v-333q0 -7 -3.5 -13t-9 -9.5t-12.5 -3.5zM973 70q0 -6 -2 -10.5t-5.5 -8t-8.5 -5.5
t-10 -2h-77v154h26q11 0 18.5 7.5t7.5 17.5q0 4 -1.5 8t-4 7t-5.5 5.5t-7 4t-8 1.5h-768q-11 0 -18.5 -7.5t-7.5 -18.5q0 -4 1.5 -8t4 -7t5.5 -5.5t7 -3.5t8 -1h26v-154h-77q-11 0 -18.5 7.5t-7.5 18.5v460q0 6 2 10.5t5.5 8t8.5 5.5t10 2h870q5 0 10 -2t8.5 -5.5t5.5 -8
t2 -10.5v-460zM742 95h-460q-5 0 -8.5 1.5t-7 4t-5.5 5.5t-3.5 7t-1.5 8q0 7 3.5 13t9.5 9t13 3h460q11 0 18.5 -7.5t7.5 -17.5q0 -5 -2 -10t-5.5 -8.5t-8 -5.5t-10.5 -2zM742 -7h-460q-5 0 -8.5 1t-7 3.5t-5.5 5.5t-3.5 7t-1.5 8q0 11 7.5 18.5t18.5 7.5h460
q11 0 18.5 -7.5t7.5 -18.5q0 -3 -0.5 -5.5t-1.5 -4.5l-4 -6q-1 -2 -4 -4l-4 -2q-3 -2 -6 -2.5t-6 -0.5zM742 -110h-460q-5 0 -8.5 1.5t-7 4t-5.5 5.5t-3.5 7t-1.5 8q0 11 7.5 18.5t18.5 7.5h460q11 0 18.5 -7.5t7.5 -18.5q0 -5 -2 -10t-5.5 -8.5t-8 -5.5t-10.5 -2zM845 351
q-32 0 -54.5 22.5t-22.5 54.5q0 21 10.5 38.5t28 28t38.5 10.5q32 0 54.5 -22.5t22.5 -54.5q0 -21 -10.5 -38.5t-28 -28t-38.5 -10.5zM844.5 454q-10.5 0 -18 -7.5t-7.5 -18.5t7.5 -18.5t18 -7.5t18 7.5t7.5 18.5t-7.5 18.5t-18 7.5z" />
    <glyph glyph-name="uniE60E" unicode="&#xe60e;" 
d="M756 214h236q2 23 2 50q0 118 -59 220q20 53 25.5 98t-4.5 82.5t-36 63.5q-18 18 -51.5 26t-76.5 5t-96 -17.5t-108 -38.5q-17 1 -34 1q-153 0 -271.5 -94t-154.5 -239q98 126 223 186q-3 -2 -13 -11l-20 -20l-19 -20l-12 -12q-86 -86 -148.5 -188t-89.5 -189t-27 -157
t30.5 -100t77.5 -38t103.5 5t121.5 45q46 -24 96 -36t103 -12q143 0 257 83t160 214h-238q-17 -30 -42.5 -52.5t-58.5 -35.5t-69.5 -13t-69.5 13t-58.5 35.5t-42.5 52.5q-3 7 -6.5 14.5t-6 14.5t-4.5 15t-3 16l-2 16q-1 8 -1 16v1h387zM370 330q4 73 57.5 123.5t127 50.5
t127 -50.5t57.5 -123.5h-369zM918 679q25 -25 25.5 -70.5t-21.5 -103.5q-76 116 -205 167q69 30 120.5 32t80.5 -25zM115 -125q-11 11 -17 25.5t-8 32.5t0.5 38.5t9 43.5t16.5 48.5t24 52.5q26 -72 74 -131t113 -98q-73 -33 -127.5 -36.5t-84.5 24.5z" />
    <glyph glyph-name="uniE60F" unicode="&#xe60f;" horiz-adv-x="1152" 
d="M949 593q0 -17 -10 -30t-24 -13h-717q-14 0 -24.5 13t-10.5 30q0 18 10.5 31t24.5 13h717q7 0 13.5 -3.5t11 -9.5t7 -14t2.5 -17zM949 288q0 -4 -0.5 -8.5t-2.5 -7.5l-2 -8q-2 -3 -4.5 -6t-5.5 -5.5t-6 -4.5t-6.5 -3t-6.5 -1h-717q-14 0 -24.5 13.5t-10.5 30.5t10.5 30.5
t24.5 13.5h717q7 0 13.5 -4t11 -10t7 -14t2.5 -16zM949 -17q0 -18 -10 -31t-24 -13h-717q-9 0 -17 6t-13 16t-5 22q0 17 10.5 30t24.5 13h717q7 0 13.5 -3.5t11 -9.5t7 -14t2.5 -16z" />
    <glyph glyph-name="uniE610" unicode="&#xe610;" 
d="M205 255v-51q0 -6 -7 -6h-51q-5 0 -5.5 0.5t-0.5 5.5v51q0 7 6 7h51q5 3 6 1.5t1 -8.5v0zM275 402v-51q0 -5 -0.5 -5.5t-5.5 -0.5h-122q-5 0 -5.5 0.5t-0.5 5.5v51q0 7 6 7h122l5 -2q1 -2 1 -5v0zM205 550v-58q0 -6 -7 -6h-51h-4q-1 0 -1.5 1t-0.5 5v58q-3 4 -1.5 5
t7.5 1h51q7 -3 7 -6v0zM749 255v-51q0 -5 -1 -5.5t-6 -0.5h-460q-7 2 -7 6v51q0 5 1 6t6 1h460q5 3 6 1.5t1 -8.5v0zM410 402v-51q0 -6 -7 -6h-51q-6 0 -6 6v51v5q0 1 1 1.5t5 0.5h51q4 0 5 -0.5t1.5 -1.5t0.5 -5v0zM339 550v-58q0 -6 -6 -6h-51h-5q-1 0 -1.5 1t-0.5 5v58
q0 4 1 5t6 1h51q5 0 5.5 -1t0.5 -5v0zM544 402v-51q0 -5 -1 -5.5t-5 -0.5h-52q-6 0 -6 6v51q0 4 0.5 5t1.5 1.5t4 0.5h52q4 0 5 -1t1 -6v0zM480 550v-58q0 -4 -0.5 -5t-1.5 -1h-4h-58h-5q-1 0 -1 1v5v58q0 2 1.5 4t2.5 2h2h51q12 -1 13 -6v0zM685 402v-51q0 -5 -1 -5.5
t-6 -0.5h-57q-4 0 -5 0.5t-1.5 1.5t-0.5 4v51q0 5 1 6t6 1h51q13 0 13 -7v0zM890 255v-51q0 -6 -7 -6h-51q-6 2 -6 6v51q0 5 0.5 6t5.5 1h51q0 5 4 1q3 -3 3 -8v0zM614 550v-58q0 -5 -0.5 -5.5t-5.5 -0.5h-51h-5q-1 0 -1.5 1t-0.5 5v58q-3 4 -1.5 5t8.5 1h51q5 0 5.5 -1
t0.5 -5v0zM749 550v-58q0 -5 -1 -5.5t-6 -0.5h-51q-5 0 -5.5 0.5t-0.5 5.5v58q0 4 0.5 5t5.5 1h51q5 0 6 -1t1 -5v0zM890 550v-199q0 -5 -1 -5.5t-6 -0.5h-121q-5 0 -6 0.5t-1 5.5v51q0 5 1 6t6 1h57v141q0 4 1 5t6 1h51q12 -1 13 -6v0zM954 121v505h-884v-505h884v0z
M1024 626v-505q0 -32 -19 -51q-20 -19 -45 -20h-890q-25 0 -44 20q-26 17 -26 51v505q1 32 19 52q20 18 45 19h890q25 0 44 -19q25 -20 26 -52v0zM410 12l96 -115l96 115h-192zM410 12z" />
    <glyph glyph-name="uniE611" unicode="&#xe611;" 
d="M511.5 -221q-103.5 0 -197.5 40.5t-162.5 108.5t-108.5 162t-40 197.5t40 198t108.5 162.5t162.5 108.5t197.5 40.5t198 -40.5t162.5 -108.5t108.5 -162.5t40.5 -198t-40.5 -197.5t-108.5 -162t-162.5 -108.5t-198 -40.5zM512 733q-91 0 -173.5 -35t-142 -95t-95 -142.5
t-35.5 -173t35.5 -173t95 -142t142 -95t173 -35.5t173 35.5t142.5 95t95 142t35 173.5q0 60 -16 118t-44.5 107t-70 90t-90 69.5t-106.5 44.5t-118 16zM513 -9q-91 0 -161.5 56t-90.5 143h504q-21 -87 -91 -143t-161 -56zM658 331q-22 0 -38.5 16t-16.5 39q0 11 4.5 21.5
t12 18t17.5 11.5t21 4q23 0 39.5 -16t16.5 -39q0 -6 -1.5 -12.5t-4.5 -12t-6.5 -10t-8.5 -8.5t-10.5 -6.5t-11.5 -4t-13 -1.5zM367 331q-15 0 -27.5 7.5t-20 20t-7.5 27.5t7.5 28t20 20t27.5 7t27.5 -7t20 -20t7.5 -28t-7.5 -27.5t-20 -20t-27.5 -7.5z" />
    <glyph glyph-name="uniE612" unicode="&#xe612;" 
d="M262 263h233v-233q0 -8 6 -14t14.5 -6t14.5 6t6 14v233h233q3 0 5 1l6 2q2 1 3.5 3t3 4.5t2.5 5t1 5.5q0 2 -0.5 4t-1.5 4t-2 3.5t-2.5 3t-3 2.5t-3.5 1l-4 2h-4h-233v233q0 9 -6 15t-14 6q-6 0 -10.5 -3t-7.5 -7.5t-3 -10.5v-233h-233q-5 0 -10 -2.5t-7.5 -7.5t-2.5 -10
q0 -9 6 -15t14 -6zM524 -216q100 0 191.5 39t157.5 105t105 157t39 191t-39 191.5t-105 157.5t-157.5 105t-191.5 39q-57 0 -112.5 -13t-104 -37.5t-91 -58t-76.5 -76.5t-58 -91.5t-37 -103.5t-13 -113q0 -100 39 -191t105 -157t157 -105t191 -39zM524.5 728q91.5 0 175 -36
t144 -96.5t96.5 -144t36 -175t-36 -175.5t-96.5 -144.5t-144 -96t-175.5 -35.5q-73 0 -142 22.5t-124.5 64.5t-97.5 97.5t-64.5 124.5t-22.5 142q0 92 35.5 175.5t96 144t144.5 96.5t175.5 36z" />
    <glyph glyph-name="uniE613" unicode="&#xe613;" 
d="M872 -71q70 70 109 162q40 94 40 198q0 51 -10 101t-30 97q-39 91 -109 161q-35 35 -76 62.5t-86 46.5q-95 40 -198 40q-51 0 -101 -10t-97 -30q-91 -38 -162 -109q-35 -35 -62 -75.5t-47 -85.5q-19 -47 -29.5 -97t-10.5 -101q0 -104 40 -198q39 -92 109.5 -162
t161.5 -109q95 -40 198 -40t198 40q92 39 162 109zM512 -175q-94 0 -180 37t-148 99t-98.5 148t-36.5 180t36.5 179.5t98.5 148t148 99t180 36.5q54 0 106 -12t97.5 -35t86 -54.5t72 -72t54.5 -86t35 -97.5t12 -106q0 -76 -23 -146.5t-66 -127.5t-100 -100t-128 -66.5
t-146 -23.5zM303 175q-3 -2 -8 -4.5t-7.5 -4t-4.5 -3.5t-3 -4.5t-1 -6.5q0 -5 1.5 -9t5 -7.5t7.5 -5t9 -1.5q8 0 15 2.5t13 8.5q63 59 63 146q0 47 -20 88t-56 69q-8 4 -20 3q-9 0 -13.5 -6.5t-4.5 -16.5q0 -5 1.5 -8t3.5 -5t8 -6t9 -7q48 -46 48 -112q0 -31 -12 -59.5
t-34 -50.5zM746 292q0 176 -108 316q-4 5 -7 8.5t-8 6t-10 2.5q-6 0 -11 -3t-7.5 -8t-2.5 -12q0 -3 0.5 -5.5t2 -5.5t3 -4.5t4.5 -5.5q46 -61 71.5 -134t25.5 -153q0 -161 -99 -288q-6 -7 -6 -16q0 -10 7.5 -17t17.5 -7q3 0 6 0.5t5.5 2t4.5 3.5t4 4.5t3 5.5q49 66 76.5 145
t27.5 165zM569 285q0 72 -29 136.5t-79 112.5q-5 4 -10 6t-10 2q-10 0 -16.5 -7t-6.5 -16q1 -12 17 -22l3 -1q41 -42 64 -96t23 -114q0 -121 -84 -208q-1 -1 -6 -4.5t-8 -6t-6 -7t-3 -9.5q0 -6 3 -11.5t8.5 -8.5t11.5 -3q9 0 19 7.5t14 13.5q95 99 95 236z" />
    <glyph glyph-name="uniE614" unicode="&#xe614;" 
d="M840 470q0 89 -44 164.5t-119.5 119.5t-164.5 44q-53 0 -103 -16.5t-90.5 -47t-71 -70.5t-47 -90t-16.5 -104q0 -126 84 -219t208 -107v-111h-164q-8 0 -13 -5.5t-5 -12.5v-37q0 -7 5 -12.5t13 -5.5h164v-164q0 -5 2.5 -9t6.5 -6.5t9 -2.5h36q8 0 13.5 5.5t5.5 12.5v164
h127q5 0 9 2.5t6.5 6.5t2.5 9v37q0 7 -5 12.5t-13 5.5h-127v111q81 9 147.5 54.5t105 117t38.5 154.5zM257 470q0 106 75 180.5t180.5 74.5t180 -74.5t74.5 -180.5t-74.5 -180.5t-180.5 -74.5q-52 0 -99 20t-81 54.5t-54.5 81.5t-20.5 99z" />
    <glyph glyph-name="uniE615" unicode="&#xe615;" 
d="M558 529v155l97 -80q11 -7 23 -7q5 0 10 1.5t9.5 4.5t7.5 6q9 10 7.5 24.5t-11.5 23.5l-150 125q-5 4 -11 6t-11.5 2t-11 -2t-10.5 -6l-147 -125q-11 -9 -12.5 -23.5t7.5 -24.5q6 -7 14.5 -10t17.5 -1.5t16 6.5l91 75v-150q-141 -14 -236.5 -118.5t-95.5 -247.5
q0 -100 49.5 -185t134.5 -134.5t184.5 -49.5t184.5 49.5t134.5 134.5t49.5 185q-4 143 -102 248.5t-239 117.5zM526 -138q-125 0 -213 88t-88 212.5t88 212.5t212.5 88t212.5 -88t88 -212t-88.5 -212.5t-211.5 -88.5z" />
  </font>
</defs>
</svg>
